Coordinates
version=1
nRows=21
nColumns=12
inDegrees=yes

Units are S.I. units (second, meters, Newtons, ...)
Angles are in degrees

endheader
time	SC_y	SC_z	SC_x	AC_y	AC_z	AC_x	GH_y	GH_z	GH_yy	EL_x	PS_y
       0.0               -28.6          22.98          37.17          46.44         -5.892          14.88           87.3          16.53          102.4          136.7          105.0
   0.02074               -28.6          22.97          37.17          46.44         -5.891          14.87          87.27          16.52          102.4          136.7          105.0
   0.04147               -28.6          22.97          37.18          46.44          -5.89          14.87          87.23          16.52          102.3          136.7          105.0
   0.06221               -28.6          22.97          37.19          46.44         -5.889          14.86           87.2          16.52          102.3          136.7          105.0
   0.08294               -28.6          22.97           37.2          46.44         -5.887          14.86          87.16          16.52          102.3          136.7          105.0
    0.1037               -28.6          22.97           37.2          46.44         -5.886          14.85          87.12          16.51          102.3          136.7          105.0
    0.1244              -28.61          22.96          37.21          46.44         -5.884          14.85          87.08          16.51          102.2          136.6          104.9
    0.1452              -28.61          22.96          37.22          46.44         -5.882          14.84          87.03          16.51          102.2          136.6          104.9
    0.1659              -28.61          22.96          37.23          46.45         -5.881          14.83          86.98           16.5          102.2          136.6          104.9
    0.1866              -28.61          22.95          37.24          46.45         -5.879          14.82          86.92           16.5          102.1          136.6          104.9
    0.2074              -28.62          22.95          37.26          46.45         -5.876          14.82          86.87           16.5          102.1          136.6          104.8
    0.2281              -28.62          22.95          37.27          46.45         -5.874          14.81           86.8          16.49          102.0          136.6          104.8
    0.2488              -28.62          22.94          37.28          46.45         -5.872           14.8          86.74          16.49          102.0          136.6          104.8
    0.2696              -28.63          22.94           37.3          46.45         -5.869          14.79          86.66          16.48          101.9          136.6          104.8
    0.2903              -28.63          22.93          37.31          46.46         -5.866          14.78          86.59          16.48          101.9          136.6          104.7
     0.311              -28.63          22.93          37.33          46.46         -5.863          14.76           86.5          16.47          101.8          136.6          104.7
    0.3318              -28.64          22.92          37.35          46.46          -5.86          14.75          86.41          16.47          101.8          136.6          104.6
    0.3525              -28.64          22.92          37.37          46.46         -5.856          14.74          86.31          16.46          101.7          136.6          104.6
    0.3733              -28.65          22.91          37.39          46.47         -5.852          14.72           86.2          16.45          101.6          136.6          104.5
     0.394              -28.65           22.9          37.42          46.47         -5.848           14.7          86.08          16.44          101.5          136.6          104.5
    0.4147              -28.66          22.89          37.45          46.47         -5.843          14.68          85.94          16.43          101.5          136.6          104.4
